<svg width="101" height="77" viewBox="0 0 101 77" fill="none" xmlns="http://www.w3.org/2000/svg">
<path d="M101 8.00001C101 5.21847 101 3.8277 100.404 2.71934C99.9047 1.78921 99.0043 0.952046 98.0403 0.521171C96.8916 0.00772927 95.5967 0.102064 93.0068 0.290735C73.7746 1.69179 55.197 8.12976 39.1708 19.0211C23.1446 29.9125 10.3199 44.8155 1.93739 62.1814C0.808578 64.52 0.244171 65.6893 0.298691 66.9463C0.344437 68.0012 0.791367 69.1465 1.4722 69.9536C2.28349 70.9154 3.5766 71.4273 6.1628 72.4513L11.4837 74.558C14.0863 75.5884 15.3876 76.1037 16.5138 76.028C17.5673 75.9573 18.4062 75.6385 19.2409 74.9919C20.1332 74.3006 20.822 72.9364 22.1998 70.2081C28.9312 56.8775 38.9574 45.4306 51.3809 36.9876C63.8043 28.5447 78.1382 23.4365 93.0107 22.085C96.0546 21.8084 97.5766 21.6701 98.5478 21.0949C99.4563 20.5569 100.061 19.8943 100.515 18.9408C101 17.9215 101 16.5219 101 13.7228V8.00001Z" fill="#A6CEF2"/>
</svg>
